REM DIRINDEX 1\2,1\3,1\4,1\6,1\5\7,1\5\8
REM DIRNAME folder01,folder02,folder03,folder04,folder05,folder06,folder07,folder08
TITLE ""
FILE "DB4500_5th_3B_03.mp3" MP3
  TRACK 01 AUDIO
    TITLE "2:cjc114_1703"
    INDEX 01 00:00:00
  TRACK 02 AUDIO
    TITLE "0:"
    INDEX 01 00:01:03
  TRACK 03 AUDIO
    TITLE "3:cjc114_1704"
    INDEX 01 00:01:30
  TRACK 04 AUDIO
    TITLE "0:"
    INDEX 01 00:02:12
  TRACK 05 AUDIO
    TITLE "4:cjc114_1705"
    INDEX 01 00:02:38
  TRACK 06 AUDIO
    TITLE "0:"
    INDEX 01 00:05:14
  TRACK 07 AUDIO
    TITLE "2:cjc114_1706"
    INDEX 01 00:05:61
  TRACK 08 AUDIO
    TITLE "0:"
    INDEX 01 00:06:61
  TRACK 09 AUDIO
    TITLE "3:cjc114_1707"
    INDEX 01 00:07:11
  TRACK 10 AUDIO
    TITLE "0:"
    INDEX 01 00:08:05
  TRACK 11 AUDIO
    TITLE "4:cjc114_1708"
    INDEX 01 00:08:34
  TRACK 12 AUDIO
    TITLE "0:"
    INDEX 01 00:11:21
  TRACK 13 AUDIO
    TITLE "2:cjc114_1709"
    INDEX 01 00:11:70
  TRACK 14 AUDIO
    TITLE "0:"
    INDEX 01 00:12:73
  TRACK 15 AUDIO
    TITLE "3:cjc114_1710"
    INDEX 01 00:13:24
  TRACK 16 AUDIO
    TITLE "0:"
    INDEX 01 00:14:43
  TRACK 17 AUDIO
    TITLE "4:cjc114_1711"
    INDEX 01 00:14:70
  TRACK 18 AUDIO
    TITLE "0:"
    INDEX 01 00:17:69
  TRACK 19 AUDIO
    TITLE "2:cjc114_1712"
    INDEX 01 00:18:44
  TRACK 20 AUDIO
    TITLE "0:"
    INDEX 01 00:19:69
  TRACK 21 AUDIO
    TITLE "3:cjc114_1713"
    INDEX 01 00:20:20
  TRACK 22 AUDIO
    TITLE "0:"
    INDEX 01 00:21:27
  TRACK 23 AUDIO
    TITLE "4:cjc114_1714"
    INDEX 01 00:21:57
  TRACK 24 AUDIO
    TITLE "0:"
    INDEX 01 00:24:49
  TRACK 25 AUDIO
    TITLE "2:cjc114_1715"
    INDEX 01 00:25:25
  TRACK 26 AUDIO
    TITLE "0:"
    INDEX 01 00:26:34
  TRACK 27 AUDIO
    TITLE "3:cjc114_1716"
    INDEX 01 00:26:60
  TRACK 28 AUDIO
    TITLE "0:"
    INDEX 01 00:27:59
  TRACK 29 AUDIO
    TITLE "4:cjc114_1717"
    INDEX 01 00:28:10
  TRACK 30 AUDIO
    TITLE "0:"
    INDEX 01 00:31:49
  TRACK 31 AUDIO
    TITLE "2:cjc114_1718"
    INDEX 01 00:32:21
  TRACK 32 AUDIO
    TITLE "0:"
    INDEX 01 00:33:22
  TRACK 33 AUDIO
    TITLE "3:cjc114_1719"
    INDEX 01 00:33:50
  TRACK 34 AUDIO
    TITLE "0:"
    INDEX 01 00:34:57
  TRACK 35 AUDIO
    TITLE "4:cjc114_1720"
    INDEX 01 00:35:06
  TRACK 36 AUDIO
    TITLE "0:"
    INDEX 01 00:37:56
  TRACK 37 AUDIO
    TITLE "2:cjc114_1721"
    INDEX 01 00:38:30
  TRACK 38 AUDIO
    TITLE "0:"
    INDEX 01 00:39:31
  TRACK 39 AUDIO
    TITLE "3:cjc114_1722"
    INDEX 01 00:39:56
  TRACK 40 AUDIO
    TITLE "0:"
    INDEX 01 00:40:64
  TRACK 41 AUDIO
    TITLE "4:cjc114_1723"
    INDEX 01 00:41:16
  TRACK 42 AUDIO
    TITLE "0:"
    INDEX 01 00:43:70
  TRACK 43 AUDIO
    TITLE "2:cjc114_1724"
    INDEX 01 00:44:44
  TRACK 44 AUDIO
    TITLE "0:"
    INDEX 01 00:45:49
  TRACK 45 AUDIO
    TITLE "3:cjc114_1725"
    INDEX 01 00:46:02
  TRACK 46 AUDIO
    TITLE "0:"
    INDEX 01 00:47:28
  TRACK 47 AUDIO
    TITLE "4:cjc114_1726"
    INDEX 01 00:47:54
  TRACK 48 AUDIO
    TITLE "0:"
    INDEX 01 00:50:27
  TRACK 49 AUDIO
    TITLE "2:cjc114_1727"
    INDEX 01 00:50:74
  TRACK 50 AUDIO
    TITLE "0:"
    INDEX 01 00:52:16
  TRACK 51 AUDIO
    TITLE "3:cjc114_1728"
    INDEX 01 00:52:41
  TRACK 52 AUDIO
    TITLE "0:"
    INDEX 01 00:53:64
  TRACK 53 AUDIO
    TITLE "4:cjc114_1729"
    INDEX 01 00:54:17
  TRACK 54 AUDIO
    TITLE "0:"
    INDEX 01 00:56:69
  TRACK 55 AUDIO
    TITLE "2:cjc114_1730"
    INDEX 01 00:57:45
  TRACK 56 AUDIO
    TITLE "0:"
    INDEX 01 00:58:54
  TRACK 57 AUDIO
    TITLE "3:cjc114_1731"
    INDEX 01 00:59:04
  TRACK 58 AUDIO
    TITLE "0:"
    INDEX 01 01:00:25
  TRACK 59 AUDIO
    TITLE "4:cjc114_1732"
    INDEX 01 01:00:51
  TRACK 60 AUDIO
    TITLE "0:"
    INDEX 01 01:04:00
  TRACK 61 AUDIO
    TITLE "2:cjc114_1733"
    INDEX 01 01:04:47
  TRACK 62 AUDIO
    TITLE "0:"
    INDEX 01 01:05:58
  TRACK 63 AUDIO
    TITLE "3:cjc114_1734"
    INDEX 01 01:06:08
  TRACK 64 AUDIO
    TITLE "0:"
    INDEX 01 01:08:38
  TRACK 65 AUDIO
    TITLE "4:cjc114_1735"
    INDEX 01 01:08:64
  TRACK 66 AUDIO
    TITLE "0:"
    INDEX 01 01:11:17
  TRACK 67 AUDIO
    TITLE "2:cjc114_1736"
    INDEX 01 01:11:66
  TRACK 68 AUDIO
    TITLE "0:"
    INDEX 01 01:13:20
  TRACK 69 AUDIO
    TITLE "3:cjc114_1737"
    INDEX 01 01:13:44
  TRACK 70 AUDIO
    TITLE "0:"
    INDEX 01 01:16:18
  TRACK 71 AUDIO
    TITLE "4:cjc114_1738"
    INDEX 01 01:16:44
  TRACK 72 AUDIO
    TITLE "0:"
    INDEX 01 01:20:61
  TRACK 73 AUDIO
    TITLE "2:cjc114_1739"
    INDEX 01 01:21:33
  TRACK 74 AUDIO
    TITLE "0:"
    INDEX 01 01:22:46
  TRACK 75 AUDIO
    TITLE "3:cjc114_1740"
    INDEX 01 01:22:72
  TRACK 76 AUDIO
    TITLE "0:"
    INDEX 01 01:25:58
  TRACK 77 AUDIO
    TITLE "4:cjc114_1741"
    INDEX 01 01:26:09
  TRACK 78 AUDIO
    TITLE "0:"
    INDEX 01 01:28:37
  TRACK 79 AUDIO
    TITLE "2:cjc114_1742"
    INDEX 01 01:29:09
  TRACK 80 AUDIO
    TITLE "0:"
    INDEX 01 01:30:26
  TRACK 81 AUDIO
    TITLE "3:cjc114_1743"
    INDEX 01 01:30:54
  TRACK 82 AUDIO
    TITLE "0:"
    INDEX 01 01:33:50
  TRACK 83 AUDIO
    TITLE "4:cjc114_1744"
    INDEX 01 01:34:01
  TRACK 84 AUDIO
    TITLE "0:"
    INDEX 01 01:36:37
